<?xml version="1.0" encoding="UTF-8"?>
<svg width="25" height="41" viewBox="0 0 25 41" fill="none" xmlns="http://www.w3.org/2000/svg">
  <path d="M12.5 0C5.59644 0 0 5.59644 0 12.5C0 21.875 12.5 41 12.5 41C12.5 41 25 21.875 25 12.5C25 5.59644 19.4036 0 12.5 0Z" fill="#EF4444"/>
  <path d="M18 12.5C18 15.5376 15.5376 18 12.5 18C9.46243 18 7 15.5376 7 12.5C7 9.46243 9.46243 7 12.5 7C15.5376 7 18 9.46243 18 12.5Z" fill="white"/>
  <path d="M10 10H6M14 18V6C14 4.89543 13.1046 4 12 4H4C2.89543 4 2 4.89543 2 6V17C2 17.5523 2.44772 18 3 18H5M19 18H21C21.5523 18 22 17.5523 22 17V13.72C22 13.3183 21.7831 12.9504 21.4362 12.7592L19.5131 11.7592C19.1943 11.5839 18.8172 11.5441 18.4683 11.6494L16.9293 12.1494C16.3692 12.3156 16 12.8302 16 13.4164V18M8 8V12M9 18H15M17 18C17 19.1046 16.1046 20 15 20C13.8954 20 13 19.1046 13 18C13 16.8954 13.8954 16 15 16C16.1046 16 17 16.8954 17 18ZM7 18C7 19.1046 6.10457 20 5 20C3.89543 20 3 19.1046 3 18C3 16.8954 3.89543 16 5 16C6.10457 16 7 16.8954 7 18Z" stroke="white" strokeWidth="1.5" strokeLinecap="round" strokeLinejoin="round"/>
</svg>